<svg xmlns="http://www.w3.org/2000/svg" version="1.1" xmlns:xlink="http://www.w3.org/1999/xlink" xmlns:svgjs="http://svgjs.com/svgjs" width="1000" height="1000"><rect width="1000" height="1000" rx="250" ry="250" fill="#ffffff"></rect><g transform="matrix(3.787878787878788,0,0,3.787878787878788,0.7581025867750668,340.93851436561704)"><svg xmlns="http://www.w3.org/2000/svg" version="1.1" xmlns:xlink="http://www.w3.org/1999/xlink" xmlns:svgjs="http://svgjs.com/svgjs" width="264" height="84"><svg width="264" height="84" viewBox="0 0 264 84" fill="none" xmlns="http://www.w3.org/2000/svg">
<path d="M34.2449 41.1644C34.2449 44.216 34.6353 46.8419 35.4159 49.0419C36.1966 51.2419 37.3321 53.0515 38.8224 54.4709C40.3482 55.8903 42.1934 56.937 44.3579 57.6112C46.5579 58.2854 49.0595 58.6225 51.8627 58.6225C55.1982 58.6225 59.1369 58.2145 63.6789 57.3983C68.2208 56.5822 73.2418 55.3225 78.7418 53.6193V78.529C73.0289 80.4452 67.4579 81.829 62.0289 82.6806C56.6353 83.5323 51.3127 83.9581 46.0611 83.9581C39.6385 83.9581 33.624 83.1597 28.0175 81.5629C22.4465 79.9661 17.5852 77.3935 13.4336 73.8451C9.31748 70.2613 6.0707 65.7548 3.69327 60.3258C1.31585 54.8967 0.127135 48.5096 0.127135 41.1644C0.127135 33.9967 1.2094 27.8225 3.37392 22.6418C5.57392 17.4612 8.66102 13.2031 12.6352 9.86759C16.6449 6.49661 21.4352 4.01274 27.0062 2.41596C32.6127 0.81918 38.8224 0.0207913 45.6353 0.0207913C49.8224 0.0207913 53.5837 0.233695 56.9192 0.659502C60.2902 1.08531 63.324 1.61757 66.0208 2.25628C68.7176 2.89499 71.095 3.62241 73.1531 4.43854C75.2466 5.21919 77.1096 5.98209 78.7418 6.72726V31.2112H62.7208C60.9111 28.6563 58.8885 26.7757 56.6531 25.5692C54.4531 24.3628 52.1821 23.7596 49.8401 23.7596C47.853 23.7596 45.9192 24.1499 44.0385 24.9305C42.1934 25.7112 40.5433 26.8467 39.0885 28.337C37.6337 29.8273 36.4627 31.6547 35.5756 33.8193C34.6885 35.9483 34.2449 38.3967 34.2449 41.1644ZM156.718 1.24499C162.324 2.59338 166.494 4.81112 169.226 7.89823C171.994 10.9853 173.378 15.137 173.378 20.3531C173.378 23.8305 173.005 26.7579 172.26 29.1354C171.515 31.4773 170.574 33.4289 169.439 34.9902C168.303 36.516 167.061 37.7047 165.713 38.5564C164.4 39.3725 163.176 39.9757 162.04 40.366C160.905 40.7564 159.929 40.987 159.113 41.058C158.332 41.1289 157.924 41.1644 157.889 41.1644C159.273 41.2354 160.745 41.3951 162.307 41.6435C163.903 41.8918 165.482 42.2822 167.044 42.8144C168.605 43.3467 170.095 44.0386 171.515 44.8902C172.934 45.7419 174.176 46.8064 175.24 48.0838C176.34 49.3257 177.21 50.8161 177.848 52.5548C178.487 54.2935 178.807 56.2983 178.807 58.5693C178.807 62.0467 178.363 65.2758 177.476 68.2564C176.624 71.2371 175.098 73.8274 172.898 76.0274C170.734 78.1919 167.771 79.8952 164.01 81.1371C160.248 82.379 155.494 83 149.745 83H87.9499V59.9L94.7628 58.5693V23.7063L87.9499 22.3757V1.24499H156.718ZM144.742 27.4321C144.742 25.6225 144.423 24.2386 143.784 23.2805C143.181 22.287 142.365 21.5595 141.336 21.0983C140.306 20.637 139.135 20.3708 137.823 20.2999C136.51 20.2289 135.179 20.1934 133.831 20.1934H128.827V35.4693H133.831C135.179 35.4693 136.51 35.4338 137.823 35.3628C139.135 35.2564 140.306 34.9547 141.336 34.458C142.365 33.9612 143.181 33.1805 143.784 32.116C144.423 31.016 144.742 29.4547 144.742 27.4321ZM144.742 53.9919C144.742 52.1822 144.423 50.7983 143.784 49.8403C143.181 48.8822 142.365 48.1725 141.336 47.7112C140.306 47.2499 139.135 46.9838 137.823 46.9128C136.51 46.8419 135.179 46.8064 133.831 46.8064H128.827V62.0822H133.831C135.179 62.0822 136.51 62.0467 137.823 61.9758C139.135 61.8693 140.306 61.5677 141.336 61.0709C142.365 60.5741 143.181 59.7758 143.784 58.6758C144.423 57.5758 144.742 56.0145 144.742 53.9919ZM218.832 41.1644C218.832 44.216 219.223 46.8419 220.003 49.0419C220.784 51.2419 221.92 53.0515 223.41 54.4709C224.936 55.8903 226.781 56.937 228.945 57.6112C231.145 58.2854 233.647 58.6225 236.45 58.6225C239.786 58.6225 243.724 58.2145 248.266 57.3983C252.808 56.5822 257.829 55.3225 263.329 53.6193V78.529C257.616 80.4452 252.045 81.829 246.616 82.6806C241.223 83.5323 235.9 83.9581 230.649 83.9581C224.226 83.9581 218.211 83.1597 212.605 81.5629C207.034 79.9661 202.173 77.3935 198.021 73.8451C193.905 70.2613 190.658 65.7548 188.281 60.3258C185.903 54.8967 184.715 48.5096 184.715 41.1644C184.715 33.9967 185.797 27.8225 187.961 22.6418C190.161 17.4612 193.249 13.2031 197.223 9.86759C201.232 6.49661 206.023 4.01274 211.594 2.41596C217.2 0.81918 223.41 0.0207913 230.223 0.0207913C234.41 0.0207913 238.171 0.233695 241.507 0.659502C244.878 1.08531 247.912 1.61757 250.608 2.25628C253.305 2.89499 255.683 3.62241 257.741 4.43854C259.834 5.21919 261.697 5.98209 263.329 6.72726V31.2112H247.308C245.499 28.6563 243.476 26.7757 241.241 25.5692C239.041 24.3628 236.77 23.7596 234.428 23.7596C232.441 23.7596 230.507 24.1499 228.626 24.9305C226.781 25.7112 225.131 26.8467 223.676 28.337C222.221 29.8273 221.05 31.6547 220.163 33.8193C219.276 35.9483 218.832 38.3967 218.832 41.1644Z" fill="#103B14"></path>
</svg></svg></g></svg>