<svg width="286" height="283" viewBox="0 0 286 283" fill="none" xmlns="http://www.w3.org/2000/svg">
<g filter="url(#filter0_d_0_1)">
<rect x="22" y="100" width="244" height="159" rx="10" fill="white"/>
<rect x="27" y="105" width="234" height="149" rx="5" stroke="#103B14" stroke-width="10"/>
</g>
<g filter="url(#filter1_i_0_1)">
<path d="M137.959 11.9418C141.074 10.1241 144.926 10.1241 148.041 11.9418L270.416 83.3633C279.231 88.5078 275.582 102 265.375 102H20.6245C10.4184 102 6.76915 88.5078 15.5839 83.3633L137.959 11.9418Z" fill="white"/>
</g>
<path d="M150.561 7.62348C145.889 4.89685 140.111 4.89686 135.439 7.62348L13.0636 79.045C-0.158569 86.7618 5.31531 107 20.6245 107H265.375C280.685 107 286.159 86.7617 272.936 79.045L150.561 7.62348Z" stroke="#103B14" stroke-width="10"/>
<rect x="71" y="134.152" width="129" height="29" rx="10" fill="#103B14"/>
<line x1="95" y1="134.152" x2="95" y2="163.152" stroke="white" stroke-width="4"/>
<line x1="93" y1="142.152" x2="193" y2="142.152" stroke="white" stroke-width="4"/>
<line x1="93" y1="156.152" x2="193" y2="156.152" stroke="white" stroke-width="4"/>
<path d="M215.914 148.563L194.615 162.398L194.229 135.442L215.914 148.563Z" fill="#103B14"/>
<path d="M207 142.152C207 141.323 206.328 140.652 205.5 140.652C204.672 140.652 204 141.323 204 142.152L207 142.152ZM204 142.152L204 156.152L207 156.152L207 142.152L204 142.152Z" fill="white"/>
<path d="M42.2441 264.566C42.6999 264.566 43.11 264.645 43.4746 264.801C43.8522 264.944 44.1973 265.107 44.5098 265.289C44.8353 265.471 45.1413 265.641 45.4277 265.797C45.7142 265.94 46.0072 266.012 46.3066 266.012C46.541 265.999 46.8079 265.966 47.1074 265.914C47.3678 265.862 47.6673 265.784 48.0059 265.68C48.3574 265.562 48.748 265.393 49.1777 265.172C48.748 265.589 48.3965 265.94 48.123 266.227C47.8626 266.5 47.6608 266.728 47.5176 266.91C47.3483 267.118 47.2246 267.281 47.1465 267.398C47.0684 267.542 46.9512 267.757 46.7949 268.043C46.6517 268.303 46.4564 268.655 46.209 269.098C45.9616 269.527 45.6491 270.094 45.2715 270.797C45.2715 269.898 45.1803 269.202 44.998 268.707C44.8288 268.212 44.64 267.835 44.4316 267.574C44.1842 267.275 43.9043 267.086 43.5918 267.008C43.3053 266.969 43.0189 267.021 42.7324 267.164C42.446 267.294 42.1595 267.49 41.873 267.75C41.5996 268.01 41.3327 268.323 41.0723 268.688C40.8249 269.039 40.597 269.41 40.3887 269.801C40.1934 270.191 40.0306 270.589 39.9004 270.992C39.7702 271.383 39.6855 271.747 39.6465 272.086C39.6074 272.385 39.6009 272.737 39.627 273.141C39.653 273.531 39.7116 273.935 39.8027 274.352C39.8939 274.755 40.0111 275.152 40.1543 275.543C40.2975 275.934 40.4733 276.285 40.6816 276.598C40.903 276.897 41.1504 277.145 41.4238 277.34C41.6973 277.522 42.0098 277.607 42.3613 277.594C42.752 277.568 43.1361 277.451 43.5137 277.242C43.8392 277.073 44.1712 276.812 44.5098 276.461C44.8483 276.096 45.1413 275.582 45.3887 274.918L48.2793 275.445C47.446 276.461 46.6322 277.223 45.8379 277.73C45.0566 278.238 44.3535 278.596 43.7285 278.805C42.9993 279.039 42.3092 279.15 41.6582 279.137C40.8379 279.046 40.0697 278.798 39.3535 278.395C38.6374 277.991 38.0189 277.503 37.498 276.93C36.9902 276.344 36.5931 275.706 36.3066 275.016C36.0202 274.326 35.8965 273.648 35.9355 272.984C35.9616 272.542 36.0527 272.027 36.209 271.441C36.3652 270.842 36.5736 270.23 36.834 269.605C37.1074 268.98 37.4329 268.368 37.8105 267.77C38.1882 267.171 38.6048 266.637 39.0605 266.168C39.5163 265.686 40.0111 265.302 40.5449 265.016C41.0918 264.716 41.6582 264.566 42.2441 264.566ZM49.9395 271.09C50.0046 271.012 50.0436 270.868 50.0566 270.66C50.0827 270.439 50.1348 270.191 50.2129 269.918C50.304 269.645 50.4538 269.358 50.6621 269.059C50.8704 268.759 51.209 268.479 51.6777 268.219C52.1335 267.958 52.5762 267.802 53.0059 267.75C53.4355 267.698 53.8457 267.717 54.2363 267.809C54.627 267.9 54.9915 268.043 55.3301 268.238C55.6816 268.434 56.0007 268.648 56.2871 268.883C56.4824 269.039 56.6387 269.267 56.7559 269.566C56.873 269.853 56.9642 270.178 57.0293 270.543C57.0944 270.908 57.14 271.292 57.166 271.695C57.2051 272.086 57.2311 272.47 57.2441 272.848C57.2572 273.212 57.2637 273.551 57.2637 273.863C57.2767 274.163 57.3027 274.41 57.3418 274.605C57.3939 274.892 57.485 275.139 57.6152 275.348C57.7454 275.543 57.8887 275.712 58.0449 275.855C58.2012 275.986 58.3574 276.09 58.5137 276.168C58.6699 276.246 58.8066 276.305 58.9238 276.344C59.002 276.383 59.0736 276.409 59.1387 276.422C59.2689 276.474 59.36 276.474 59.4121 276.422C59.334 276.604 59.2624 276.76 59.1973 276.891C59.1322 277.021 59.0801 277.132 59.041 277.223C58.9889 277.327 58.9434 277.411 58.9043 277.477C58.8652 277.555 58.8197 277.626 58.7676 277.691C58.7285 277.757 58.6764 277.828 58.6113 277.906C58.5462 277.984 58.4811 278.069 58.416 278.16C58.2467 278.095 58.084 278.017 57.9277 277.926C57.7845 277.835 57.6543 277.75 57.5371 277.672C57.3939 277.581 57.2637 277.49 57.1465 277.398C57.0293 277.307 56.9186 277.203 56.8145 277.086C56.7233 276.982 56.6257 276.871 56.5215 276.754C56.4303 276.637 56.3522 276.507 56.2871 276.363C56.209 276.533 56.0202 276.773 55.7207 277.086C55.4342 277.398 55.0566 277.685 54.5879 277.945C54.1191 278.193 53.5723 278.368 52.9473 278.473C52.3353 278.577 51.6582 278.505 50.916 278.258C50.5905 278.154 50.2845 278.004 49.998 277.809C49.7116 277.6 49.4642 277.353 49.2559 277.066C49.0605 276.78 48.9173 276.454 48.8262 276.09C48.748 275.712 48.7546 275.296 48.8457 274.84C48.9368 274.384 49.0996 274 49.334 273.688C49.5684 273.375 49.8483 273.121 50.1738 272.926C50.4993 272.73 50.8639 272.581 51.2676 272.477C51.6712 272.372 52.0879 272.301 52.5176 272.262C52.8561 272.249 53.1947 272.268 53.5332 272.32C53.8197 272.372 54.1191 272.47 54.4316 272.613C54.7441 272.743 55.0111 272.945 55.2324 273.219C55.2194 272.529 55.1934 271.982 55.1543 271.578C55.1283 271.161 55.1022 270.842 55.0762 270.621C55.0241 270.361 54.9785 270.178 54.9395 270.074C54.8743 269.983 54.8027 269.879 54.7246 269.762C54.6595 269.645 54.5749 269.54 54.4707 269.449C54.3665 269.345 54.2363 269.26 54.0801 269.195C53.9238 269.13 53.7415 269.104 53.5332 269.117C53.3118 269.13 53.1361 269.189 53.0059 269.293C52.8757 269.397 52.7715 269.521 52.6934 269.664C52.6283 269.794 52.5892 269.938 52.5762 270.094C52.5632 270.25 52.5697 270.387 52.5957 270.504C52.6217 270.582 52.6608 270.667 52.7129 270.758C52.765 270.836 52.8366 270.921 52.9277 271.012C53.0189 271.103 53.1426 271.181 53.2988 271.246C52.9993 271.285 52.7324 271.318 52.498 271.344C52.2637 271.357 52.0618 271.376 51.8926 271.402C51.6973 271.428 51.528 271.448 51.3848 271.461C51.2415 271.474 51.0723 271.5 50.877 271.539C50.7077 271.565 50.4993 271.598 50.252 271.637C50.0046 271.676 49.7181 271.728 49.3926 271.793C49.4707 271.702 49.5423 271.617 49.6074 271.539C49.6725 271.448 49.7311 271.37 49.7832 271.305C49.8353 271.227 49.8874 271.155 49.9395 271.09ZM52.8691 273.414C52.6348 273.427 52.4004 273.486 52.166 273.59C51.9316 273.681 51.7233 273.818 51.541 274C51.3587 274.169 51.2025 274.371 51.0723 274.605C50.9551 274.827 50.8965 275.074 50.8965 275.348C50.8965 275.621 50.9616 275.862 51.0918 276.07C51.235 276.266 51.4173 276.428 51.6387 276.559C51.873 276.689 52.1204 276.767 52.3809 276.793C52.6543 276.819 52.9212 276.793 53.1816 276.715C53.429 276.624 53.6634 276.48 53.8848 276.285C54.1061 276.077 54.2949 275.855 54.4512 275.621C54.6074 275.374 54.7181 275.133 54.7832 274.898C54.8483 274.651 54.8548 274.449 54.8027 274.293C54.6986 273.954 54.4642 273.72 54.0996 273.59C53.735 273.447 53.3249 273.388 52.8691 273.414ZM67.8301 267.848C67.7129 268.134 67.6087 268.395 67.5176 268.629C67.4395 268.863 67.3678 269.072 67.3027 269.254C67.2376 269.462 67.179 269.645 67.127 269.801C67.0749 269.983 67.0163 270.191 66.9512 270.426C66.8861 270.634 66.8014 270.895 66.6973 271.207C66.6061 271.507 66.4954 271.865 66.3652 272.281C66.2611 271.656 66.0723 271.161 65.7988 270.797C65.5254 270.419 65.2454 270.126 64.959 269.918C64.6204 269.684 64.2559 269.514 63.8652 269.41C63.1621 269.293 62.6543 269.306 62.3418 269.449C62.0293 269.592 61.821 269.775 61.7168 269.996C61.6647 270.087 61.6061 270.204 61.541 270.348C61.4889 270.478 61.4434 270.615 61.4043 270.758C61.3783 270.901 61.3717 271.044 61.3848 271.188C61.3978 271.331 61.4564 271.448 61.5605 271.539C61.6257 271.604 61.7949 271.695 62.0684 271.812C62.3418 271.917 62.6673 272.04 63.0449 272.184C63.4355 272.314 63.8457 272.457 64.2754 272.613C64.7181 272.77 65.1348 272.926 65.5254 273.082C65.916 273.238 66.2546 273.395 66.541 273.551C66.8275 273.707 67.0163 273.85 67.1074 273.98C67.1855 274.111 67.2702 274.286 67.3613 274.508C67.4655 274.716 67.5371 274.951 67.5762 275.211C67.6283 275.458 67.6413 275.719 67.6152 275.992C67.6022 276.253 67.5306 276.513 67.4004 276.773C67.2702 277.034 67.0618 277.275 66.7754 277.496C66.502 277.717 66.1309 277.9 65.6621 278.043C65.1152 278.212 64.5879 278.258 64.0801 278.18C63.5723 278.102 63.1035 277.984 62.6738 277.828C62.2572 277.672 61.8926 277.522 61.5801 277.379C61.2676 277.223 61.0462 277.158 60.916 277.184C60.7728 277.21 60.61 277.281 60.4277 277.398C60.2454 277.516 60.0697 277.639 59.9004 277.77C59.7441 277.887 59.6074 277.997 59.4902 278.102C59.373 278.193 59.3145 278.225 59.3145 278.199C59.3145 278.173 59.334 278.095 59.373 277.965C59.4251 277.835 59.4772 277.678 59.5293 277.496C59.5944 277.301 59.653 277.092 59.7051 276.871C59.7702 276.637 59.8158 276.415 59.8418 276.207C59.8678 276.038 59.9004 275.829 59.9395 275.582C59.9655 275.361 59.998 275.094 60.0371 274.781C60.0892 274.456 60.1478 274.065 60.2129 273.609C60.278 273.948 60.3691 274.241 60.4863 274.488C60.6165 274.736 60.7402 274.951 60.8574 275.133C61.0007 275.341 61.1374 275.517 61.2676 275.66C61.4629 275.842 61.6908 276.012 61.9512 276.168C62.2246 276.324 62.498 276.461 62.7715 276.578C63.0449 276.682 63.3053 276.747 63.5527 276.773C63.8001 276.799 64.0085 276.773 64.1777 276.695C64.347 276.617 64.4902 276.474 64.6074 276.266C64.7376 276.057 64.8288 275.829 64.8809 275.582C64.9329 275.335 64.9525 275.1 64.9395 274.879C64.9264 274.645 64.8678 274.456 64.7637 274.312C64.6855 274.221 64.5033 274.104 64.2168 273.961C63.9434 273.818 63.6113 273.661 63.2207 273.492C62.8431 273.323 62.4395 273.147 62.0098 272.965C61.5931 272.783 61.196 272.6 60.8184 272.418C60.4538 272.223 60.1478 272.04 59.9004 271.871C59.666 271.689 59.5358 271.526 59.5098 271.383C59.4837 271.174 59.4642 270.947 59.4512 270.699C59.4382 270.439 59.4512 270.185 59.4902 269.938C59.5423 269.677 59.6335 269.43 59.7637 269.195C59.9069 268.961 60.1152 268.766 60.3887 268.609C60.571 268.505 60.8118 268.427 61.1113 268.375C61.4108 268.323 61.7428 268.297 62.1074 268.297C62.472 268.284 62.8496 268.297 63.2402 268.336C63.6309 268.362 64.002 268.401 64.3535 268.453C64.7181 268.492 65.0436 268.544 65.3301 268.609C65.6296 268.674 65.8574 268.733 66.0137 268.785C66.196 268.85 66.3913 268.857 66.5996 268.805C66.7819 268.766 66.9772 268.681 67.1855 268.551C67.3939 268.421 67.6087 268.186 67.8301 267.848ZM69.998 271.09C70.0632 271.012 70.1022 270.868 70.1152 270.66C70.1413 270.439 70.1934 270.191 70.2715 269.918C70.3626 269.645 70.5124 269.358 70.7207 269.059C70.929 268.759 71.2676 268.479 71.7363 268.219C72.1921 267.958 72.6348 267.802 73.0645 267.75C73.4941 267.698 73.9043 267.717 74.2949 267.809C74.6855 267.9 75.0501 268.043 75.3887 268.238C75.7402 268.434 76.0592 268.648 76.3457 268.883C76.541 269.039 76.6973 269.267 76.8145 269.566C76.9316 269.853 77.0228 270.178 77.0879 270.543C77.153 270.908 77.1986 271.292 77.2246 271.695C77.2637 272.086 77.2897 272.47 77.3027 272.848C77.3158 273.212 77.3223 273.551 77.3223 273.863C77.3353 274.163 77.3613 274.41 77.4004 274.605C77.4525 274.892 77.5436 275.139 77.6738 275.348C77.804 275.543 77.9473 275.712 78.1035 275.855C78.2598 275.986 78.416 276.09 78.5723 276.168C78.7285 276.246 78.8652 276.305 78.9824 276.344C79.0605 276.383 79.1322 276.409 79.1973 276.422C79.3275 276.474 79.4186 276.474 79.4707 276.422C79.3926 276.604 79.321 276.76 79.2559 276.891C79.1908 277.021 79.1387 277.132 79.0996 277.223C79.0475 277.327 79.002 277.411 78.9629 277.477C78.9238 277.555 78.8783 277.626 78.8262 277.691C78.7871 277.757 78.735 277.828 78.6699 277.906C78.6048 277.984 78.5397 278.069 78.4746 278.16C78.3053 278.095 78.1426 278.017 77.9863 277.926C77.8431 277.835 77.7129 277.75 77.5957 277.672C77.4525 277.581 77.3223 277.49 77.2051 277.398C77.0879 277.307 76.9772 277.203 76.873 277.086C76.7819 276.982 76.6842 276.871 76.5801 276.754C76.4889 276.637 76.4108 276.507 76.3457 276.363C76.2676 276.533 76.0788 276.773 75.7793 277.086C75.4928 277.398 75.1152 277.685 74.6465 277.945C74.1777 278.193 73.6309 278.368 73.0059 278.473C72.3939 278.577 71.7168 278.505 70.9746 278.258C70.6491 278.154 70.3431 278.004 70.0566 277.809C69.7702 277.6 69.5228 277.353 69.3145 277.066C69.1191 276.78 68.9759 276.454 68.8848 276.09C68.8066 275.712 68.8132 275.296 68.9043 274.84C68.9954 274.384 69.1582 274 69.3926 273.688C69.627 273.375 69.9069 273.121 70.2324 272.926C70.5579 272.73 70.9225 272.581 71.3262 272.477C71.7298 272.372 72.1465 272.301 72.5762 272.262C72.9147 272.249 73.2533 272.268 73.5918 272.32C73.8783 272.372 74.1777 272.47 74.4902 272.613C74.8027 272.743 75.0697 272.945 75.291 273.219C75.278 272.529 75.252 271.982 75.2129 271.578C75.1868 271.161 75.1608 270.842 75.1348 270.621C75.0827 270.361 75.0371 270.178 74.998 270.074C74.9329 269.983 74.8613 269.879 74.7832 269.762C74.7181 269.645 74.6335 269.54 74.5293 269.449C74.4251 269.345 74.2949 269.26 74.1387 269.195C73.9824 269.13 73.8001 269.104 73.5918 269.117C73.3704 269.13 73.1947 269.189 73.0645 269.293C72.9342 269.397 72.8301 269.521 72.752 269.664C72.6868 269.794 72.6478 269.938 72.6348 270.094C72.6217 270.25 72.6283 270.387 72.6543 270.504C72.6803 270.582 72.7194 270.667 72.7715 270.758C72.8236 270.836 72.8952 270.921 72.9863 271.012C73.0775 271.103 73.2012 271.181 73.3574 271.246C73.0579 271.285 72.791 271.318 72.5566 271.344C72.3223 271.357 72.1204 271.376 71.9512 271.402C71.7559 271.428 71.5866 271.448 71.4434 271.461C71.3001 271.474 71.1309 271.5 70.9355 271.539C70.7663 271.565 70.5579 271.598 70.3105 271.637C70.0632 271.676 69.7767 271.728 69.4512 271.793C69.5293 271.702 69.6009 271.617 69.666 271.539C69.7311 271.448 69.7897 271.37 69.8418 271.305C69.8939 271.227 69.946 271.155 69.998 271.09ZM72.9277 273.414C72.6934 273.427 72.459 273.486 72.2246 273.59C71.9902 273.681 71.7819 273.818 71.5996 274C71.4173 274.169 71.2611 274.371 71.1309 274.605C71.0137 274.827 70.9551 275.074 70.9551 275.348C70.9551 275.621 71.0202 275.862 71.1504 276.07C71.2936 276.266 71.4759 276.428 71.6973 276.559C71.9316 276.689 72.179 276.767 72.4395 276.793C72.7129 276.819 72.9798 276.793 73.2402 276.715C73.4876 276.624 73.722 276.48 73.9434 276.285C74.1647 276.077 74.3535 275.855 74.5098 275.621C74.666 275.374 74.7767 275.133 74.8418 274.898C74.9069 274.651 74.9134 274.449 74.8613 274.293C74.7572 273.954 74.5228 273.72 74.1582 273.59C73.7936 273.447 73.3835 273.388 72.9277 273.414ZM85.0957 265.035C85.5124 265.139 85.9095 265.217 86.2871 265.27C86.6647 265.322 86.9967 265.361 87.2832 265.387C87.6217 265.426 87.9342 265.439 88.2207 265.426C88.5853 265.426 89.041 265.393 89.5879 265.328C90.1478 265.263 90.7207 265.204 91.3066 265.152C91.8926 265.087 92.4525 265.048 92.9863 265.035C93.5332 265.009 93.9759 265.042 94.3145 265.133C94.653 265.211 94.998 265.335 95.3496 265.504C95.7142 265.66 96.0462 265.862 96.3457 266.109C96.6452 266.344 96.8926 266.624 97.0879 266.949C97.2832 267.262 97.3939 267.62 97.4199 268.023C97.4069 268.531 97.2897 269.007 97.0684 269.449C96.8861 269.827 96.5801 270.217 96.1504 270.621C95.7207 271.012 95.1022 271.311 94.2949 271.52C94.6986 271.572 95.0436 271.663 95.3301 271.793C95.6296 271.91 95.8835 272.053 96.0918 272.223C96.3132 272.379 96.4889 272.555 96.6191 272.75C96.7624 272.945 96.873 273.141 96.9512 273.336C97.1465 273.792 97.2376 274.299 97.2246 274.859C97.1465 275.589 96.9967 276.168 96.7754 276.598C96.5671 277.027 96.3262 277.359 96.0527 277.594C95.7793 277.828 95.4993 277.991 95.2129 278.082C94.9264 278.173 94.666 278.245 94.4316 278.297C94.1973 278.349 93.9108 278.375 93.5723 278.375C93.2337 278.375 92.8691 278.368 92.4785 278.355C92.1009 278.329 91.7103 278.31 91.3066 278.297C90.903 278.271 90.5189 278.271 90.1543 278.297C89.8548 278.323 89.4902 278.349 89.0605 278.375C88.696 278.401 88.2402 278.434 87.6934 278.473C87.1465 278.499 86.5085 278.531 85.7793 278.57C85.9225 278.466 86.0397 278.349 86.1309 278.219C86.235 278.076 86.3197 277.952 86.3848 277.848C86.4499 277.717 86.5085 277.594 86.5605 277.477C86.5996 277.372 86.6322 277.086 86.6582 276.617C86.6842 276.148 86.7038 275.589 86.7168 274.938C86.7298 274.273 86.7363 273.564 86.7363 272.809C86.7493 272.04 86.7428 271.305 86.7168 270.602C86.7038 269.885 86.6777 269.254 86.6387 268.707C86.6126 268.147 86.5736 267.743 86.5215 267.496C86.4434 267.223 86.3392 266.943 86.209 266.656C86.1048 266.409 85.9551 266.142 85.7598 265.855C85.5775 265.569 85.3561 265.296 85.0957 265.035ZM89.2168 267.027C89.2168 267.079 89.2233 267.255 89.2363 267.555C89.2493 267.815 89.2624 268.219 89.2754 268.766C89.3014 269.299 89.334 270.061 89.373 271.051C89.6986 271.194 90.0176 271.272 90.3301 271.285C90.6426 271.285 90.9225 271.272 91.1699 271.246C91.4564 271.207 91.7298 271.142 91.9902 271.051C92.3418 270.908 92.6152 270.673 92.8105 270.348C93.0189 270.022 93.1556 269.684 93.2207 269.332C93.2988 268.967 93.3184 268.629 93.2793 268.316C93.2402 267.991 93.1556 267.757 93.0254 267.613C92.778 267.392 92.472 267.21 92.1074 267.066C91.7949 266.949 91.3978 266.871 90.916 266.832C90.4473 266.78 89.8809 266.845 89.2168 267.027ZM89.1191 276.285C89.6009 276.533 90.0241 276.695 90.3887 276.773C90.7533 276.852 91.0592 276.891 91.3066 276.891C91.5931 276.891 91.8405 276.852 92.0488 276.773C92.2962 276.656 92.5371 276.5 92.7715 276.305C93.0189 276.096 93.2012 275.855 93.3184 275.582C93.4486 275.296 93.5007 274.983 93.4746 274.645C93.4486 274.293 93.2988 273.909 93.0254 273.492C92.778 273.193 92.4785 272.958 92.127 272.789C91.8145 272.646 91.4173 272.555 90.9355 272.516C90.4668 272.477 89.8874 272.587 89.1973 272.848L89.1191 276.285ZM99.7832 271.09C99.8483 271.012 99.8874 270.868 99.9004 270.66C99.9264 270.439 99.9785 270.191 100.057 269.918C100.148 269.645 100.298 269.358 100.506 269.059C100.714 268.759 101.053 268.479 101.521 268.219C101.977 267.958 102.42 267.802 102.85 267.75C103.279 267.698 103.689 267.717 104.08 267.809C104.471 267.9 104.835 268.043 105.174 268.238C105.525 268.434 105.844 268.648 106.131 268.883C106.326 269.039 106.482 269.267 106.6 269.566C106.717 269.853 106.808 270.178 106.873 270.543C106.938 270.908 106.984 271.292 107.01 271.695C107.049 272.086 107.075 272.47 107.088 272.848C107.101 273.212 107.107 273.551 107.107 273.863C107.12 274.163 107.146 274.41 107.186 274.605C107.238 274.892 107.329 275.139 107.459 275.348C107.589 275.543 107.732 275.712 107.889 275.855C108.045 275.986 108.201 276.09 108.357 276.168C108.514 276.246 108.65 276.305 108.768 276.344C108.846 276.383 108.917 276.409 108.982 276.422C109.113 276.474 109.204 276.474 109.256 276.422C109.178 276.604 109.106 276.76 109.041 276.891C108.976 277.021 108.924 277.132 108.885 277.223C108.833 277.327 108.787 277.411 108.748 277.477C108.709 277.555 108.663 277.626 108.611 277.691C108.572 277.757 108.52 277.828 108.455 277.906C108.39 277.984 108.325 278.069 108.26 278.16C108.09 278.095 107.928 278.017 107.771 277.926C107.628 277.835 107.498 277.75 107.381 277.672C107.238 277.581 107.107 277.49 106.99 277.398C106.873 277.307 106.762 277.203 106.658 277.086C106.567 276.982 106.469 276.871 106.365 276.754C106.274 276.637 106.196 276.507 106.131 276.363C106.053 276.533 105.864 276.773 105.564 277.086C105.278 277.398 104.9 277.685 104.432 277.945C103.963 278.193 103.416 278.368 102.791 278.473C102.179 278.577 101.502 278.505 100.76 278.258C100.434 278.154 100.128 278.004 99.8418 277.809C99.5553 277.6 99.3079 277.353 99.0996 277.066C98.9043 276.78 98.7611 276.454 98.6699 276.09C98.5918 275.712 98.5983 275.296 98.6895 274.84C98.7806 274.384 98.9434 274 99.1777 273.688C99.4121 273.375 99.6921 273.121 100.018 272.926C100.343 272.73 100.708 272.581 101.111 272.477C101.515 272.372 101.932 272.301 102.361 272.262C102.7 272.249 103.038 272.268 103.377 272.32C103.663 272.372 103.963 272.47 104.275 272.613C104.588 272.743 104.855 272.945 105.076 273.219C105.063 272.529 105.037 271.982 104.998 271.578C104.972 271.161 104.946 270.842 104.92 270.621C104.868 270.361 104.822 270.178 104.783 270.074C104.718 269.983 104.646 269.879 104.568 269.762C104.503 269.645 104.419 269.54 104.314 269.449C104.21 269.345 104.08 269.26 103.924 269.195C103.768 269.13 103.585 269.104 103.377 269.117C103.156 269.13 102.98 269.189 102.85 269.293C102.719 269.397 102.615 269.521 102.537 269.664C102.472 269.794 102.433 269.938 102.42 270.094C102.407 270.25 102.413 270.387 102.439 270.504C102.465 270.582 102.505 270.667 102.557 270.758C102.609 270.836 102.68 270.921 102.771 271.012C102.863 271.103 102.986 271.181 103.143 271.246C102.843 271.285 102.576 271.318 102.342 271.344C102.107 271.357 101.906 271.376 101.736 271.402C101.541 271.428 101.372 271.448 101.229 271.461C101.085 271.474 100.916 271.5 100.721 271.539C100.551 271.565 100.343 271.598 100.096 271.637C99.8483 271.676 99.5618 271.728 99.2363 271.793C99.3145 271.702 99.3861 271.617 99.4512 271.539C99.5163 271.448 99.5749 271.37 99.627 271.305C99.679 271.227 99.7311 271.155 99.7832 271.09ZM102.713 273.414C102.479 273.427 102.244 273.486 102.01 273.59C101.775 273.681 101.567 273.818 101.385 274C101.202 274.169 101.046 274.371 100.916 274.605C100.799 274.827 100.74 275.074 100.74 275.348C100.74 275.621 100.805 275.862 100.936 276.07C101.079 276.266 101.261 276.428 101.482 276.559C101.717 276.689 101.964 276.767 102.225 276.793C102.498 276.819 102.765 276.793 103.025 276.715C103.273 276.624 103.507 276.48 103.729 276.285C103.95 276.077 104.139 275.855 104.295 275.621C104.451 275.374 104.562 275.133 104.627 274.898C104.692 274.651 104.699 274.449 104.646 274.293C104.542 273.954 104.308 273.72 103.943 273.59C103.579 273.447 103.169 273.388 102.713 273.414ZM108.826 266.695C109.217 266.734 109.542 266.767 109.803 266.793C110.076 266.819 110.298 266.839 110.467 266.852C110.662 266.865 110.818 266.871 110.936 266.871C111.053 266.884 111.209 266.884 111.404 266.871C111.574 266.858 111.795 266.845 112.068 266.832C112.342 266.806 112.687 266.767 113.104 266.715C113.012 266.845 112.941 266.962 112.889 267.066C112.837 267.158 112.791 267.242 112.752 267.32L112.635 267.555C112.609 267.633 112.583 267.711 112.557 267.789C112.531 267.854 112.505 267.932 112.479 268.023C112.465 268.115 112.452 268.212 112.439 268.316H115.447L115.174 269.898L112.42 269.742C112.355 270.406 112.309 270.921 112.283 271.285C112.257 271.65 112.231 271.917 112.205 272.086L112.166 272.438C112.127 272.932 112.088 273.473 112.049 274.059C112.01 274.632 111.997 275.165 112.01 275.66C112.023 276.155 112.068 276.572 112.146 276.91C112.225 277.236 112.361 277.398 112.557 277.398C112.752 277.398 112.934 277.346 113.104 277.242C113.273 277.138 113.416 277.014 113.533 276.871C113.663 276.728 113.761 276.585 113.826 276.441C113.891 276.285 113.924 276.168 113.924 276.09C113.924 276.012 113.904 275.921 113.865 275.816C113.8 275.621 113.683 275.374 113.514 275.074C113.891 275.165 114.223 275.257 114.51 275.348C114.653 275.4 114.783 275.452 114.9 275.504C115.031 275.556 115.18 275.615 115.35 275.68C115.493 275.745 115.675 275.823 115.896 275.914C116.118 276.005 116.378 276.116 116.678 276.246C116.391 276.298 116.183 276.383 116.053 276.5C115.975 276.552 115.916 276.611 115.877 276.676C115.786 276.819 115.682 277.014 115.564 277.262C115.447 277.496 115.271 277.73 115.037 277.965C114.803 278.199 114.484 278.408 114.08 278.59C113.689 278.772 113.162 278.876 112.498 278.902C111.808 278.928 111.281 278.811 110.916 278.551C110.564 278.29 110.304 277.991 110.135 277.652C109.979 277.301 109.887 276.956 109.861 276.617C109.835 276.279 109.816 276.051 109.803 275.934C109.79 275.816 109.79 275.523 109.803 275.055C109.816 274.586 109.835 274.072 109.861 273.512C109.887 272.939 109.913 272.392 109.939 271.871C109.965 271.337 109.979 270.947 109.979 270.699C109.979 270.569 109.985 270.432 109.998 270.289C109.998 270.172 109.998 270.048 109.998 269.918C110.011 269.775 110.018 269.638 110.018 269.508L107.186 269.488L107.068 268.375L109.92 268.453C109.894 268.31 109.861 268.18 109.822 268.062C109.796 267.932 109.77 267.828 109.744 267.75C109.705 267.659 109.666 267.581 109.627 267.516C109.575 267.451 109.516 267.379 109.451 267.301C109.386 267.236 109.301 267.151 109.197 267.047C109.093 266.943 108.969 266.826 108.826 266.695ZM115.877 270.27L119.471 270.309C119.262 271.103 119.106 271.78 119.002 272.34C118.911 272.9 118.852 273.368 118.826 273.746C118.774 274.176 118.761 274.54 118.787 274.84C118.826 275.113 118.891 275.406 118.982 275.719C119.061 275.979 119.178 276.279 119.334 276.617C119.49 276.956 119.699 277.294 119.959 277.633C119.803 277.581 119.633 277.542 119.451 277.516C119.269 277.49 119.1 277.47 118.943 277.457C118.761 277.444 118.579 277.444 118.396 277.457C118.214 277.47 118.012 277.49 117.791 277.516C117.609 277.542 117.387 277.574 117.127 277.613C116.867 277.652 116.593 277.704 116.307 277.77C116.502 277.184 116.652 276.676 116.756 276.246C116.873 275.816 116.958 275.458 117.01 275.172C117.062 274.833 117.094 274.56 117.107 274.352C117.107 274.091 117.107 273.798 117.107 273.473C117.107 273.134 117.107 272.809 117.107 272.496C117.107 272.184 117.101 271.91 117.088 271.676C117.075 271.428 117.049 271.272 117.01 271.207L116.814 271.012C116.736 270.947 116.619 270.855 116.463 270.738C116.32 270.608 116.124 270.452 115.877 270.27ZM117.264 267.262C117.537 267.118 117.811 267.079 118.084 267.145C118.37 267.21 118.592 267.333 118.748 267.516C118.904 267.698 118.956 267.913 118.904 268.16C118.865 268.408 118.657 268.648 118.279 268.883C117.902 269.104 117.57 269.182 117.283 269.117C116.997 269.052 116.795 268.915 116.678 268.707C116.561 268.499 116.541 268.258 116.619 267.984C116.697 267.698 116.912 267.457 117.264 267.262ZM129.275 267.848C129.158 268.134 129.054 268.395 128.963 268.629C128.885 268.863 128.813 269.072 128.748 269.254C128.683 269.462 128.624 269.645 128.572 269.801C128.52 269.983 128.462 270.191 128.396 270.426C128.331 270.634 128.247 270.895 128.143 271.207C128.051 271.507 127.941 271.865 127.811 272.281C127.706 271.656 127.518 271.161 127.244 270.797C126.971 270.419 126.691 270.126 126.404 269.918C126.066 269.684 125.701 269.514 125.311 269.41C124.607 269.293 124.1 269.306 123.787 269.449C123.475 269.592 123.266 269.775 123.162 269.996C123.11 270.087 123.051 270.204 122.986 270.348C122.934 270.478 122.889 270.615 122.85 270.758C122.824 270.901 122.817 271.044 122.83 271.188C122.843 271.331 122.902 271.448 123.006 271.539C123.071 271.604 123.24 271.695 123.514 271.812C123.787 271.917 124.113 272.04 124.49 272.184C124.881 272.314 125.291 272.457 125.721 272.613C126.163 272.77 126.58 272.926 126.971 273.082C127.361 273.238 127.7 273.395 127.986 273.551C128.273 273.707 128.462 273.85 128.553 273.98C128.631 274.111 128.715 274.286 128.807 274.508C128.911 274.716 128.982 274.951 129.021 275.211C129.074 275.458 129.087 275.719 129.061 275.992C129.048 276.253 128.976 276.513 128.846 276.773C128.715 277.034 128.507 277.275 128.221 277.496C127.947 277.717 127.576 277.9 127.107 278.043C126.561 278.212 126.033 278.258 125.525 278.18C125.018 278.102 124.549 277.984 124.119 277.828C123.702 277.672 123.338 277.522 123.025 277.379C122.713 277.223 122.492 277.158 122.361 277.184C122.218 277.21 122.055 277.281 121.873 277.398C121.691 277.516 121.515 277.639 121.346 277.77C121.189 277.887 121.053 277.997 120.936 278.102C120.818 278.193 120.76 278.225 120.76 278.199C120.76 278.173 120.779 278.095 120.818 277.965C120.87 277.835 120.923 277.678 120.975 277.496C121.04 277.301 121.098 277.092 121.15 276.871C121.215 276.637 121.261 276.415 121.287 276.207C121.313 276.038 121.346 275.829 121.385 275.582C121.411 275.361 121.443 275.094 121.482 274.781C121.535 274.456 121.593 274.065 121.658 273.609C121.723 273.948 121.814 274.241 121.932 274.488C122.062 274.736 122.186 274.951 122.303 275.133C122.446 275.341 122.583 275.517 122.713 275.66C122.908 275.842 123.136 276.012 123.396 276.168C123.67 276.324 123.943 276.461 124.217 276.578C124.49 276.682 124.751 276.747 124.998 276.773C125.245 276.799 125.454 276.773 125.623 276.695C125.792 276.617 125.936 276.474 126.053 276.266C126.183 276.057 126.274 275.829 126.326 275.582C126.378 275.335 126.398 275.1 126.385 274.879C126.372 274.645 126.313 274.456 126.209 274.312C126.131 274.221 125.949 274.104 125.662 273.961C125.389 273.818 125.057 273.661 124.666 273.492C124.288 273.323 123.885 273.147 123.455 272.965C123.038 272.783 122.641 272.6 122.264 272.418C121.899 272.223 121.593 272.04 121.346 271.871C121.111 271.689 120.981 271.526 120.955 271.383C120.929 271.174 120.91 270.947 120.896 270.699C120.883 270.439 120.896 270.185 120.936 269.938C120.988 269.677 121.079 269.43 121.209 269.195C121.352 268.961 121.561 268.766 121.834 268.609C122.016 268.505 122.257 268.427 122.557 268.375C122.856 268.323 123.188 268.297 123.553 268.297C123.917 268.284 124.295 268.297 124.686 268.336C125.076 268.362 125.447 268.401 125.799 268.453C126.163 268.492 126.489 268.544 126.775 268.609C127.075 268.674 127.303 268.733 127.459 268.785C127.641 268.85 127.837 268.857 128.045 268.805C128.227 268.766 128.423 268.681 128.631 268.551C128.839 268.421 129.054 268.186 129.275 267.848ZM129.744 266.695C130.135 266.734 130.46 266.767 130.721 266.793C130.994 266.819 131.215 266.839 131.385 266.852C131.58 266.865 131.736 266.871 131.854 266.871C131.971 266.884 132.127 266.884 132.322 266.871C132.492 266.858 132.713 266.845 132.986 266.832C133.26 266.806 133.605 266.767 134.021 266.715C133.93 266.845 133.859 266.962 133.807 267.066C133.755 267.158 133.709 267.242 133.67 267.32L133.553 267.555C133.527 267.633 133.501 267.711 133.475 267.789C133.449 267.854 133.423 267.932 133.396 268.023C133.383 268.115 133.37 268.212 133.357 268.316H136.365L136.092 269.898L133.338 269.742C133.273 270.406 133.227 270.921 133.201 271.285C133.175 271.65 133.149 271.917 133.123 272.086L133.084 272.438C133.045 272.932 133.006 273.473 132.967 274.059C132.928 274.632 132.915 275.165 132.928 275.66C132.941 276.155 132.986 276.572 133.064 276.91C133.143 277.236 133.279 277.398 133.475 277.398C133.67 277.398 133.852 277.346 134.021 277.242C134.191 277.138 134.334 277.014 134.451 276.871C134.581 276.728 134.679 276.585 134.744 276.441C134.809 276.285 134.842 276.168 134.842 276.09C134.842 276.012 134.822 275.921 134.783 275.816C134.718 275.621 134.601 275.374 134.432 275.074C134.809 275.165 135.141 275.257 135.428 275.348C135.571 275.4 135.701 275.452 135.818 275.504C135.949 275.556 136.098 275.615 136.268 275.68C136.411 275.745 136.593 275.823 136.814 275.914C137.036 276.005 137.296 276.116 137.596 276.246C137.309 276.298 137.101 276.383 136.971 276.5C136.893 276.552 136.834 276.611 136.795 276.676C136.704 276.819 136.6 277.014 136.482 277.262C136.365 277.496 136.189 277.73 135.955 277.965C135.721 278.199 135.402 278.408 134.998 278.59C134.607 278.772 134.08 278.876 133.416 278.902C132.726 278.928 132.199 278.811 131.834 278.551C131.482 278.29 131.222 277.991 131.053 277.652C130.896 277.301 130.805 276.956 130.779 276.617C130.753 276.279 130.734 276.051 130.721 275.934C130.708 275.816 130.708 275.523 130.721 275.055C130.734 274.586 130.753 274.072 130.779 273.512C130.805 272.939 130.831 272.392 130.857 271.871C130.883 271.337 130.896 270.947 130.896 270.699C130.896 270.569 130.903 270.432 130.916 270.289C130.916 270.172 130.916 270.048 130.916 269.918C130.929 269.775 130.936 269.638 130.936 269.508L128.104 269.488L127.986 268.375L130.838 268.453C130.812 268.31 130.779 268.18 130.74 268.062C130.714 267.932 130.688 267.828 130.662 267.75C130.623 267.659 130.584 267.581 130.545 267.516C130.493 267.451 130.434 267.379 130.369 267.301C130.304 267.236 130.219 267.151 130.115 267.047C130.011 266.943 129.887 266.826 129.744 266.695ZM138.26 271.09C138.325 271.012 138.364 270.868 138.377 270.66C138.403 270.439 138.455 270.191 138.533 269.918C138.624 269.645 138.774 269.358 138.982 269.059C139.191 268.759 139.529 268.479 139.998 268.219C140.454 267.958 140.896 267.802 141.326 267.75C141.756 267.698 142.166 267.717 142.557 267.809C142.947 267.9 143.312 268.043 143.65 268.238C144.002 268.434 144.321 268.648 144.607 268.883C144.803 269.039 144.959 269.267 145.076 269.566C145.193 269.853 145.285 270.178 145.35 270.543C145.415 270.908 145.46 271.292 145.486 271.695C145.525 272.086 145.551 272.47 145.564 272.848C145.577 273.212 145.584 273.551 145.584 273.863C145.597 274.163 145.623 274.41 145.662 274.605C145.714 274.892 145.805 275.139 145.936 275.348C146.066 275.543 146.209 275.712 146.365 275.855C146.521 275.986 146.678 276.09 146.834 276.168C146.99 276.246 147.127 276.305 147.244 276.344C147.322 276.383 147.394 276.409 147.459 276.422C147.589 276.474 147.68 276.474 147.732 276.422C147.654 276.604 147.583 276.76 147.518 276.891C147.452 277.021 147.4 277.132 147.361 277.223C147.309 277.327 147.264 277.411 147.225 277.477C147.186 277.555 147.14 277.626 147.088 277.691C147.049 277.757 146.997 277.828 146.932 277.906C146.867 277.984 146.801 278.069 146.736 278.16C146.567 278.095 146.404 278.017 146.248 277.926C146.105 277.835 145.975 277.75 145.857 277.672C145.714 277.581 145.584 277.49 145.467 277.398C145.35 277.307 145.239 277.203 145.135 277.086C145.044 276.982 144.946 276.871 144.842 276.754C144.751 276.637 144.673 276.507 144.607 276.363C144.529 276.533 144.34 276.773 144.041 277.086C143.755 277.398 143.377 277.685 142.908 277.945C142.439 278.193 141.893 278.368 141.268 278.473C140.656 278.577 139.979 278.505 139.236 278.258C138.911 278.154 138.605 278.004 138.318 277.809C138.032 277.6 137.785 277.353 137.576 277.066C137.381 276.78 137.238 276.454 137.146 276.09C137.068 275.712 137.075 275.296 137.166 274.84C137.257 274.384 137.42 274 137.654 273.688C137.889 273.375 138.169 273.121 138.494 272.926C138.82 272.73 139.184 272.581 139.588 272.477C139.992 272.372 140.408 272.301 140.838 272.262C141.176 272.249 141.515 272.268 141.854 272.32C142.14 272.372 142.439 272.47 142.752 272.613C143.064 272.743 143.331 272.945 143.553 273.219C143.54 272.529 143.514 271.982 143.475 271.578C143.449 271.161 143.423 270.842 143.396 270.621C143.344 270.361 143.299 270.178 143.26 270.074C143.195 269.983 143.123 269.879 143.045 269.762C142.98 269.645 142.895 269.54 142.791 269.449C142.687 269.345 142.557 269.26 142.4 269.195C142.244 269.13 142.062 269.104 141.854 269.117C141.632 269.13 141.456 269.189 141.326 269.293C141.196 269.397 141.092 269.521 141.014 269.664C140.949 269.794 140.91 269.938 140.896 270.094C140.883 270.25 140.89 270.387 140.916 270.504C140.942 270.582 140.981 270.667 141.033 270.758C141.085 270.836 141.157 270.921 141.248 271.012C141.339 271.103 141.463 271.181 141.619 271.246C141.32 271.285 141.053 271.318 140.818 271.344C140.584 271.357 140.382 271.376 140.213 271.402C140.018 271.428 139.848 271.448 139.705 271.461C139.562 271.474 139.393 271.5 139.197 271.539C139.028 271.565 138.82 271.598 138.572 271.637C138.325 271.676 138.038 271.728 137.713 271.793C137.791 271.702 137.863 271.617 137.928 271.539C137.993 271.448 138.051 271.37 138.104 271.305C138.156 271.227 138.208 271.155 138.26 271.09ZM141.189 273.414C140.955 273.427 140.721 273.486 140.486 273.59C140.252 273.681 140.044 273.818 139.861 274C139.679 274.169 139.523 274.371 139.393 274.605C139.275 274.827 139.217 275.074 139.217 275.348C139.217 275.621 139.282 275.862 139.412 276.07C139.555 276.266 139.738 276.428 139.959 276.559C140.193 276.689 140.441 276.767 140.701 276.793C140.975 276.819 141.242 276.793 141.502 276.715C141.749 276.624 141.984 276.48 142.205 276.285C142.426 276.077 142.615 275.855 142.771 275.621C142.928 275.374 143.038 275.133 143.104 274.898C143.169 274.651 143.175 274.449 143.123 274.293C143.019 273.954 142.785 273.72 142.42 273.59C142.055 273.447 141.645 273.388 141.189 273.414ZM163.533 264.039C163.781 264.052 164.048 264.059 164.334 264.059C164.581 264.059 164.861 264.065 165.174 264.078C165.499 264.078 165.838 264.065 166.189 264.039C165.877 264.182 165.604 264.391 165.369 264.664C165.135 264.938 164.946 265.211 164.803 265.484C164.62 265.81 164.471 266.148 164.354 266.5C164.288 266.708 164.236 267.079 164.197 267.613C164.158 268.134 164.126 268.746 164.1 269.449C164.087 270.152 164.08 270.895 164.08 271.676C164.08 272.457 164.087 273.206 164.1 273.922C164.113 274.625 164.132 275.25 164.158 275.797C164.184 276.344 164.217 276.728 164.256 276.949C164.308 277.21 164.373 277.457 164.451 277.691C164.516 277.9 164.601 278.115 164.705 278.336C164.809 278.544 164.939 278.714 165.096 278.844L163.104 279.742C162.999 279.599 162.915 279.449 162.85 279.293C162.785 279.15 162.732 279.02 162.693 278.902C162.641 278.759 162.609 278.629 162.596 278.512C162.57 278.355 162.544 278.186 162.518 278.004C162.492 277.809 162.459 277.626 162.42 277.457C162.394 277.275 162.374 277.125 162.361 277.008C162.348 276.891 162.348 276.819 162.361 276.793C162.374 276.767 162.296 276.884 162.127 277.145C161.958 277.392 161.704 277.685 161.365 278.023C161.04 278.349 160.636 278.668 160.154 278.98C159.673 279.28 159.132 279.469 158.533 279.547C157.921 279.625 157.355 279.508 156.834 279.195C156.326 278.883 155.89 278.447 155.525 277.887C155.161 277.314 154.881 276.656 154.686 275.914C154.503 275.159 154.432 274.391 154.471 273.609C154.497 273.089 154.614 272.626 154.822 272.223C155.031 271.806 155.291 271.448 155.604 271.148C155.929 270.836 156.281 270.576 156.658 270.367C157.049 270.146 157.426 269.964 157.791 269.82C158.169 269.677 158.52 269.573 158.846 269.508C159.171 269.443 159.432 269.397 159.627 269.371C159.861 269.358 160.128 269.397 160.428 269.488C160.688 269.566 160.988 269.697 161.326 269.879C161.678 270.061 162.068 270.335 162.498 270.699C162.42 269.397 162.348 268.355 162.283 267.574C162.218 266.78 162.153 266.174 162.088 265.758C162.023 265.263 161.964 264.924 161.912 264.742C161.847 264.612 161.762 264.482 161.658 264.352C161.567 264.247 161.45 264.143 161.307 264.039C161.176 263.922 161.02 263.831 160.838 263.766C161.176 263.831 161.502 263.876 161.814 263.902C162.127 263.928 162.413 263.954 162.674 263.98C162.973 264.007 163.26 264.026 163.533 264.039ZM158.631 271.324C158.383 271.415 158.182 271.572 158.025 271.793C157.882 272.014 157.765 272.281 157.674 272.594C157.583 272.893 157.518 273.219 157.479 273.57C157.452 273.909 157.433 274.241 157.42 274.566C157.42 274.879 157.42 275.165 157.42 275.426C157.42 275.686 157.42 275.882 157.42 276.012C157.42 276.09 157.433 276.233 157.459 276.441C157.498 276.637 157.576 276.845 157.693 277.066C157.811 277.275 157.973 277.464 158.182 277.633C158.403 277.802 158.696 277.887 159.061 277.887C159.36 277.861 159.679 277.757 160.018 277.574C160.317 277.418 160.656 277.171 161.033 276.832C161.424 276.48 161.84 275.979 162.283 275.328C162.257 274.911 162.238 274.566 162.225 274.293C162.225 274.02 162.218 273.798 162.205 273.629C162.192 273.434 162.186 273.277 162.186 273.16V272.867C162.186 272.789 162.186 272.704 162.186 272.613C162.186 272.522 162.192 272.438 162.205 272.359C161.84 272.099 161.515 271.878 161.229 271.695C160.955 271.5 160.682 271.357 160.408 271.266C160.148 271.161 159.874 271.116 159.588 271.129C159.314 271.129 158.995 271.194 158.631 271.324ZM167.244 271.09C167.309 271.012 167.348 270.868 167.361 270.66C167.387 270.439 167.439 270.191 167.518 269.918C167.609 269.645 167.758 269.358 167.967 269.059C168.175 268.759 168.514 268.479 168.982 268.219C169.438 267.958 169.881 267.802 170.311 267.75C170.74 267.698 171.15 267.717 171.541 267.809C171.932 267.9 172.296 268.043 172.635 268.238C172.986 268.434 173.305 268.648 173.592 268.883C173.787 269.039 173.943 269.267 174.061 269.566C174.178 269.853 174.269 270.178 174.334 270.543C174.399 270.908 174.445 271.292 174.471 271.695C174.51 272.086 174.536 272.47 174.549 272.848C174.562 273.212 174.568 273.551 174.568 273.863C174.581 274.163 174.607 274.41 174.646 274.605C174.699 274.892 174.79 275.139 174.92 275.348C175.05 275.543 175.193 275.712 175.35 275.855C175.506 275.986 175.662 276.09 175.818 276.168C175.975 276.246 176.111 276.305 176.229 276.344C176.307 276.383 176.378 276.409 176.443 276.422C176.574 276.474 176.665 276.474 176.717 276.422C176.639 276.604 176.567 276.76 176.502 276.891C176.437 277.021 176.385 277.132 176.346 277.223C176.294 277.327 176.248 277.411 176.209 277.477C176.17 277.555 176.124 277.626 176.072 277.691C176.033 277.757 175.981 277.828 175.916 277.906C175.851 277.984 175.786 278.069 175.721 278.16C175.551 278.095 175.389 278.017 175.232 277.926C175.089 277.835 174.959 277.75 174.842 277.672C174.699 277.581 174.568 277.49 174.451 277.398C174.334 277.307 174.223 277.203 174.119 277.086C174.028 276.982 173.93 276.871 173.826 276.754C173.735 276.637 173.657 276.507 173.592 276.363C173.514 276.533 173.325 276.773 173.025 277.086C172.739 277.398 172.361 277.685 171.893 277.945C171.424 278.193 170.877 278.368 170.252 278.473C169.64 278.577 168.963 278.505 168.221 278.258C167.895 278.154 167.589 278.004 167.303 277.809C167.016 277.6 166.769 277.353 166.561 277.066C166.365 276.78 166.222 276.454 166.131 276.09C166.053 275.712 166.059 275.296 166.15 274.84C166.242 274.384 166.404 274 166.639 273.688C166.873 273.375 167.153 273.121 167.479 272.926C167.804 272.73 168.169 272.581 168.572 272.477C168.976 272.372 169.393 272.301 169.822 272.262C170.161 272.249 170.499 272.268 170.838 272.32C171.124 272.372 171.424 272.47 171.736 272.613C172.049 272.743 172.316 272.945 172.537 273.219C172.524 272.529 172.498 271.982 172.459 271.578C172.433 271.161 172.407 270.842 172.381 270.621C172.329 270.361 172.283 270.178 172.244 270.074C172.179 269.983 172.107 269.879 172.029 269.762C171.964 269.645 171.88 269.54 171.775 269.449C171.671 269.345 171.541 269.26 171.385 269.195C171.229 269.13 171.046 269.104 170.838 269.117C170.617 269.13 170.441 269.189 170.311 269.293C170.18 269.397 170.076 269.521 169.998 269.664C169.933 269.794 169.894 269.938 169.881 270.094C169.868 270.25 169.874 270.387 169.9 270.504C169.926 270.582 169.965 270.667 170.018 270.758C170.07 270.836 170.141 270.921 170.232 271.012C170.324 271.103 170.447 271.181 170.604 271.246C170.304 271.285 170.037 271.318 169.803 271.344C169.568 271.357 169.367 271.376 169.197 271.402C169.002 271.428 168.833 271.448 168.689 271.461C168.546 271.474 168.377 271.5 168.182 271.539C168.012 271.565 167.804 271.598 167.557 271.637C167.309 271.676 167.023 271.728 166.697 271.793C166.775 271.702 166.847 271.617 166.912 271.539C166.977 271.448 167.036 271.37 167.088 271.305C167.14 271.227 167.192 271.155 167.244 271.09ZM170.174 273.414C169.939 273.427 169.705 273.486 169.471 273.59C169.236 273.681 169.028 273.818 168.846 274C168.663 274.169 168.507 274.371 168.377 274.605C168.26 274.827 168.201 275.074 168.201 275.348C168.201 275.621 168.266 275.862 168.396 276.07C168.54 276.266 168.722 276.428 168.943 276.559C169.178 276.689 169.425 276.767 169.686 276.793C169.959 276.819 170.226 276.793 170.486 276.715C170.734 276.624 170.968 276.48 171.189 276.285C171.411 276.077 171.6 275.855 171.756 275.621C171.912 275.374 172.023 275.133 172.088 274.898C172.153 274.651 172.16 274.449 172.107 274.293C172.003 273.954 171.769 273.72 171.404 273.59C171.04 273.447 170.63 273.388 170.174 273.414ZM188.553 264.566C189.008 264.566 189.419 264.645 189.783 264.801C190.161 264.944 190.506 265.107 190.818 265.289C191.144 265.471 191.45 265.641 191.736 265.797C192.023 265.94 192.316 266.012 192.615 266.012C192.85 265.999 193.117 265.966 193.416 265.914C193.676 265.862 193.976 265.784 194.314 265.68C194.666 265.562 195.057 265.393 195.486 265.172C195.057 265.589 194.705 265.94 194.432 266.227C194.171 266.5 193.969 266.728 193.826 266.91C193.657 267.118 193.533 267.281 193.455 267.398C193.377 267.542 193.26 267.757 193.104 268.043C192.96 268.303 192.765 268.655 192.518 269.098C192.27 269.527 191.958 270.094 191.58 270.797C191.58 269.898 191.489 269.202 191.307 268.707C191.137 268.212 190.949 267.835 190.74 267.574C190.493 267.275 190.213 267.086 189.9 267.008C189.614 266.969 189.327 267.021 189.041 267.164C188.755 267.294 188.468 267.49 188.182 267.75C187.908 268.01 187.641 268.323 187.381 268.688C187.133 269.039 186.906 269.41 186.697 269.801C186.502 270.191 186.339 270.589 186.209 270.992C186.079 271.383 185.994 271.747 185.955 272.086C185.916 272.385 185.91 272.737 185.936 273.141C185.962 273.531 186.02 273.935 186.111 274.352C186.202 274.755 186.32 275.152 186.463 275.543C186.606 275.934 186.782 276.285 186.99 276.598C187.212 276.897 187.459 277.145 187.732 277.34C188.006 277.522 188.318 277.607 188.67 277.594C189.061 277.568 189.445 277.451 189.822 277.242C190.148 277.073 190.48 276.812 190.818 276.461C191.157 276.096 191.45 275.582 191.697 274.918L194.588 275.445C193.755 276.461 192.941 277.223 192.146 277.73C191.365 278.238 190.662 278.596 190.037 278.805C189.308 279.039 188.618 279.15 187.967 279.137C187.146 279.046 186.378 278.798 185.662 278.395C184.946 277.991 184.327 277.503 183.807 276.93C183.299 276.344 182.902 275.706 182.615 275.016C182.329 274.326 182.205 273.648 182.244 272.984C182.27 272.542 182.361 272.027 182.518 271.441C182.674 270.842 182.882 270.23 183.143 269.605C183.416 268.98 183.742 268.368 184.119 267.77C184.497 267.171 184.913 266.637 185.369 266.168C185.825 265.686 186.32 265.302 186.854 265.016C187.4 264.716 187.967 264.566 188.553 264.566ZM194.588 269.645C194.835 269.658 195.057 269.664 195.252 269.664C195.46 269.651 195.636 269.638 195.779 269.625C195.949 269.612 196.098 269.599 196.229 269.586C196.424 269.56 196.626 269.527 196.834 269.488C197.016 269.462 197.205 269.43 197.4 269.391C197.609 269.339 197.811 269.28 198.006 269.215C197.928 269.41 197.863 269.579 197.811 269.723C197.758 269.866 197.719 269.99 197.693 270.094C197.654 270.211 197.635 270.309 197.635 270.387C197.622 270.478 197.615 270.589 197.615 270.719C197.602 270.94 197.602 271.298 197.615 271.793C198.292 271.207 198.859 270.751 199.314 270.426C199.783 270.1 200.154 269.846 200.428 269.664C200.753 269.456 201.007 269.319 201.189 269.254C201.671 269.176 202.094 269.286 202.459 269.586C202.615 269.716 202.765 269.892 202.908 270.113C203.051 270.322 203.175 270.602 203.279 270.953C203.383 271.305 203.462 271.728 203.514 272.223C203.566 272.704 203.572 273.284 203.533 273.961C203.26 273.987 203.012 274.013 202.791 274.039C202.583 274.065 202.407 274.085 202.264 274.098C202.094 274.124 201.938 274.137 201.795 274.137L201.268 274.195C201.085 274.221 200.857 274.247 200.584 274.273C200.324 274.286 200.005 274.312 199.627 274.352C200.174 273.909 200.525 273.525 200.682 273.199C200.851 272.861 200.923 272.581 200.896 272.359C200.87 272.112 200.753 271.897 200.545 271.715C200.298 271.572 200.031 271.52 199.744 271.559C199.497 271.585 199.21 271.695 198.885 271.891C198.559 272.086 198.214 272.451 197.85 272.984C197.876 273.818 197.902 274.508 197.928 275.055C197.967 275.602 197.999 276.044 198.025 276.383C198.064 276.773 198.097 277.079 198.123 277.301C198.162 277.496 198.24 277.704 198.357 277.926C198.449 278.108 198.579 278.31 198.748 278.531C198.917 278.753 199.139 278.974 199.412 279.195C198.839 279.169 198.37 279.169 198.006 279.195C197.785 279.208 197.589 279.221 197.42 279.234C197.238 279.26 197.042 279.286 196.834 279.312C196.652 279.339 196.437 279.365 196.189 279.391C195.955 279.43 195.695 279.469 195.408 279.508C195.512 279.365 195.597 279.195 195.662 279C195.727 278.818 195.779 278.642 195.818 278.473C195.87 278.277 195.91 278.076 195.936 277.867C195.949 277.685 195.955 277.411 195.955 277.047C195.968 276.682 195.962 276.272 195.936 275.816C195.923 275.348 195.903 274.866 195.877 274.371C195.851 273.863 195.818 273.388 195.779 272.945C195.74 272.503 195.695 272.118 195.643 271.793C195.604 271.454 195.558 271.22 195.506 271.09C195.441 270.934 195.363 270.777 195.271 270.621C195.193 270.478 195.096 270.328 194.979 270.172C194.861 270.003 194.731 269.827 194.588 269.645ZM204.354 270.27L207.947 270.309C207.739 271.103 207.583 271.78 207.479 272.34C207.387 272.9 207.329 273.368 207.303 273.746C207.251 274.176 207.238 274.54 207.264 274.84C207.303 275.113 207.368 275.406 207.459 275.719C207.537 275.979 207.654 276.279 207.811 276.617C207.967 276.956 208.175 277.294 208.436 277.633C208.279 277.581 208.11 277.542 207.928 277.516C207.745 277.49 207.576 277.47 207.42 277.457C207.238 277.444 207.055 277.444 206.873 277.457C206.691 277.47 206.489 277.49 206.268 277.516C206.085 277.542 205.864 277.574 205.604 277.613C205.343 277.652 205.07 277.704 204.783 277.77C204.979 277.184 205.128 276.676 205.232 276.246C205.35 275.816 205.434 275.458 205.486 275.172C205.538 274.833 205.571 274.56 205.584 274.352C205.584 274.091 205.584 273.798 205.584 273.473C205.584 273.134 205.584 272.809 205.584 272.496C205.584 272.184 205.577 271.91 205.564 271.676C205.551 271.428 205.525 271.272 205.486 271.207L205.291 271.012C205.213 270.947 205.096 270.855 204.939 270.738C204.796 270.608 204.601 270.452 204.354 270.27ZM205.74 267.262C206.014 267.118 206.287 267.079 206.561 267.145C206.847 267.21 207.068 267.333 207.225 267.516C207.381 267.698 207.433 267.913 207.381 268.16C207.342 268.408 207.133 268.648 206.756 268.883C206.378 269.104 206.046 269.182 205.76 269.117C205.473 269.052 205.271 268.915 205.154 268.707C205.037 268.499 205.018 268.258 205.096 267.984C205.174 267.698 205.389 267.457 205.74 267.262ZM210.604 271.09C210.669 271.012 210.708 270.868 210.721 270.66C210.747 270.439 210.799 270.191 210.877 269.918C210.968 269.645 211.118 269.358 211.326 269.059C211.535 268.759 211.873 268.479 212.342 268.219C212.798 267.958 213.24 267.802 213.67 267.75C214.1 267.698 214.51 267.717 214.9 267.809C215.291 267.9 215.656 268.043 215.994 268.238C216.346 268.434 216.665 268.648 216.951 268.883C217.146 269.039 217.303 269.267 217.42 269.566C217.537 269.853 217.628 270.178 217.693 270.543C217.758 270.908 217.804 271.292 217.83 271.695C217.869 272.086 217.895 272.47 217.908 272.848C217.921 273.212 217.928 273.551 217.928 273.863C217.941 274.163 217.967 274.41 218.006 274.605C218.058 274.892 218.149 275.139 218.279 275.348C218.41 275.543 218.553 275.712 218.709 275.855C218.865 275.986 219.021 276.09 219.178 276.168C219.334 276.246 219.471 276.305 219.588 276.344C219.666 276.383 219.738 276.409 219.803 276.422C219.933 276.474 220.024 276.474 220.076 276.422C219.998 276.604 219.926 276.76 219.861 276.891C219.796 277.021 219.744 277.132 219.705 277.223C219.653 277.327 219.607 277.411 219.568 277.477C219.529 277.555 219.484 277.626 219.432 277.691C219.393 277.757 219.34 277.828 219.275 277.906C219.21 277.984 219.145 278.069 219.08 278.16C218.911 278.095 218.748 278.017 218.592 277.926C218.449 277.835 218.318 277.75 218.201 277.672C218.058 277.581 217.928 277.49 217.811 277.398C217.693 277.307 217.583 277.203 217.479 277.086C217.387 276.982 217.29 276.871 217.186 276.754C217.094 276.637 217.016 276.507 216.951 276.363C216.873 276.533 216.684 276.773 216.385 277.086C216.098 277.398 215.721 277.685 215.252 277.945C214.783 278.193 214.236 278.368 213.611 278.473C212.999 278.577 212.322 278.505 211.58 278.258C211.255 278.154 210.949 278.004 210.662 277.809C210.376 277.6 210.128 277.353 209.92 277.066C209.725 276.78 209.581 276.454 209.49 276.09C209.412 275.712 209.419 275.296 209.51 274.84C209.601 274.384 209.764 274 209.998 273.688C210.232 273.375 210.512 273.121 210.838 272.926C211.163 272.73 211.528 272.581 211.932 272.477C212.335 272.372 212.752 272.301 213.182 272.262C213.52 272.249 213.859 272.268 214.197 272.32C214.484 272.372 214.783 272.47 215.096 272.613C215.408 272.743 215.675 272.945 215.896 273.219C215.883 272.529 215.857 271.982 215.818 271.578C215.792 271.161 215.766 270.842 215.74 270.621C215.688 270.361 215.643 270.178 215.604 270.074C215.538 269.983 215.467 269.879 215.389 269.762C215.324 269.645 215.239 269.54 215.135 269.449C215.031 269.345 214.9 269.26 214.744 269.195C214.588 269.13 214.406 269.104 214.197 269.117C213.976 269.13 213.8 269.189 213.67 269.293C213.54 269.397 213.436 269.521 213.357 269.664C213.292 269.794 213.253 269.938 213.24 270.094C213.227 270.25 213.234 270.387 213.26 270.504C213.286 270.582 213.325 270.667 213.377 270.758C213.429 270.836 213.501 270.921 213.592 271.012C213.683 271.103 213.807 271.181 213.963 271.246C213.663 271.285 213.396 271.318 213.162 271.344C212.928 271.357 212.726 271.376 212.557 271.402C212.361 271.428 212.192 271.448 212.049 271.461C211.906 271.474 211.736 271.5 211.541 271.539C211.372 271.565 211.163 271.598 210.916 271.637C210.669 271.676 210.382 271.728 210.057 271.793C210.135 271.702 210.206 271.617 210.271 271.539C210.337 271.448 210.395 271.37 210.447 271.305C210.499 271.227 210.551 271.155 210.604 271.09ZM213.533 273.414C213.299 273.427 213.064 273.486 212.83 273.59C212.596 273.681 212.387 273.818 212.205 274C212.023 274.169 211.867 274.371 211.736 274.605C211.619 274.827 211.561 275.074 211.561 275.348C211.561 275.621 211.626 275.862 211.756 276.07C211.899 276.266 212.081 276.428 212.303 276.559C212.537 276.689 212.785 276.767 213.045 276.793C213.318 276.819 213.585 276.793 213.846 276.715C214.093 276.624 214.327 276.48 214.549 276.285C214.77 276.077 214.959 275.855 215.115 275.621C215.271 275.374 215.382 275.133 215.447 274.898C215.512 274.651 215.519 274.449 215.467 274.293C215.363 273.954 215.128 273.72 214.764 273.59C214.399 273.447 213.989 273.388 213.533 273.414ZM220.486 276.852C220.577 276.422 220.643 276.044 220.682 275.719C220.734 275.38 220.773 275.1 220.799 274.879C220.825 274.618 220.838 274.397 220.838 274.215C220.825 273.993 220.812 273.733 220.799 273.434C220.799 273.121 220.786 272.815 220.76 272.516C220.747 272.203 220.727 271.93 220.701 271.695C220.675 271.448 220.643 271.272 220.604 271.168C220.551 271.064 220.48 270.953 220.389 270.836C220.206 270.615 219.939 270.4 219.588 270.191C219.887 270.126 220.141 270.074 220.35 270.035C220.571 269.983 220.753 269.938 220.896 269.898C221.053 269.846 221.189 269.801 221.307 269.762C221.411 269.723 221.535 269.684 221.678 269.645C221.795 269.618 221.938 269.586 222.107 269.547C222.277 269.508 222.472 269.462 222.693 269.41L222.635 271.188C223.051 270.693 223.475 270.322 223.904 270.074C224.334 269.827 224.738 269.651 225.115 269.547C225.545 269.417 225.968 269.352 226.385 269.352C226.906 269.378 227.387 269.462 227.83 269.605C228.286 269.749 228.676 269.918 229.002 270.113C229.34 270.296 229.614 270.491 229.822 270.699C230.031 270.908 230.154 271.09 230.193 271.246C230.35 271.754 230.389 272.223 230.311 272.652C230.232 273.069 230.128 273.479 229.998 273.883C229.881 274.273 229.777 274.664 229.686 275.055C229.607 275.445 229.64 275.868 229.783 276.324C229.835 276.441 229.887 276.559 229.939 276.676C229.992 276.78 230.057 276.884 230.135 276.988C230.213 277.092 230.304 277.177 230.408 277.242C230.265 277.229 230.122 277.223 229.979 277.223C229.835 277.21 229.705 277.197 229.588 277.184C229.445 277.171 229.314 277.158 229.197 277.145C229.067 277.132 228.891 277.125 228.67 277.125C228.292 277.125 227.706 277.145 226.912 277.184C227.029 276.91 227.12 276.682 227.186 276.5C227.264 276.305 227.329 276.148 227.381 276.031C227.433 275.888 227.472 275.777 227.498 275.699C227.654 275.322 227.745 274.892 227.771 274.41C227.811 273.928 227.778 273.44 227.674 272.945C227.635 272.776 227.57 272.574 227.479 272.34C227.387 272.105 227.264 271.878 227.107 271.656C226.964 271.435 226.788 271.246 226.58 271.09C226.385 270.934 226.157 270.842 225.896 270.816C225.636 270.79 225.343 270.855 225.018 271.012C224.705 271.168 224.367 271.454 224.002 271.871C223.729 272.223 223.514 272.652 223.357 273.16C223.214 273.59 223.117 274.13 223.064 274.781C223.012 275.419 223.09 276.168 223.299 277.027C223.117 277.001 222.947 276.988 222.791 276.988C222.635 276.975 222.505 276.962 222.4 276.949C222.27 276.936 222.153 276.923 222.049 276.91C221.932 276.91 221.801 276.904 221.658 276.891C221.528 276.891 221.365 276.891 221.17 276.891C220.975 276.878 220.747 276.865 220.486 276.852ZM237.342 277.906L237.068 279.254C237.485 279.319 237.785 279.43 237.967 279.586C238.162 279.742 238.292 279.911 238.357 280.094C238.436 280.302 238.462 280.53 238.436 280.777C238.344 281.025 238.182 281.259 237.947 281.48C237.739 281.663 237.433 281.845 237.029 282.027C236.626 282.21 236.079 282.353 235.389 282.457L235.428 281.559C235.805 281.48 236.098 281.389 236.307 281.285C236.528 281.181 236.691 281.083 236.795 280.992C236.912 280.888 236.984 280.777 237.01 280.66C237.01 280.543 236.945 280.439 236.814 280.348C236.71 280.27 236.541 280.191 236.307 280.113C236.072 280.035 235.727 279.97 235.271 279.918L235.604 277.867C235.174 277.776 234.783 277.646 234.432 277.477C234.093 277.294 233.768 277.092 233.455 276.871C233.286 276.754 233.097 276.559 232.889 276.285C232.68 276.012 232.485 275.686 232.303 275.309C232.12 274.918 231.971 274.488 231.854 274.02C231.736 273.551 231.691 273.069 231.717 272.574C231.743 272.066 231.86 271.559 232.068 271.051C232.277 270.543 232.609 270.055 233.064 269.586C233.755 268.883 234.49 268.427 235.271 268.219C236.066 267.997 236.814 267.939 237.518 268.043C238.221 268.134 238.846 268.336 239.393 268.648C239.939 268.961 240.324 269.299 240.545 269.664C240.766 270.029 240.929 270.309 241.033 270.504C241.15 270.686 241.235 270.829 241.287 270.934C241.352 271.025 241.404 271.096 241.443 271.148C241.495 271.188 241.567 271.246 241.658 271.324C241.723 271.389 241.801 271.461 241.893 271.539C241.971 271.604 242.062 271.682 242.166 271.773C242.27 271.865 242.387 271.962 242.518 272.066C242.361 272.04 242.166 272.021 241.932 272.008C241.71 271.995 241.495 271.988 241.287 271.988C241.053 271.988 240.805 271.995 240.545 272.008C240.271 272.021 239.998 272.034 239.725 272.047C239.49 272.06 239.223 272.079 238.924 272.105C238.637 272.118 238.357 272.138 238.084 272.164C238.188 272.112 238.279 272.04 238.357 271.949C238.449 271.858 238.527 271.767 238.592 271.676C238.657 271.572 238.715 271.461 238.768 271.344C238.833 271.148 238.826 270.914 238.748 270.641C238.67 270.354 238.527 270.094 238.318 269.859C238.123 269.625 237.869 269.443 237.557 269.312C237.257 269.169 236.925 269.137 236.561 269.215C236.17 269.306 235.818 269.443 235.506 269.625C235.206 269.807 234.952 270.061 234.744 270.387C234.549 270.699 234.406 271.09 234.314 271.559C234.236 272.014 234.217 272.561 234.256 273.199C234.308 273.993 234.438 274.625 234.646 275.094C234.855 275.562 235.109 275.914 235.408 276.148C235.708 276.383 236.033 276.526 236.385 276.578C236.749 276.617 237.107 276.617 237.459 276.578C237.706 276.526 237.934 276.415 238.143 276.246C238.312 276.103 238.468 275.895 238.611 275.621C238.755 275.348 238.82 274.97 238.807 274.488L241.189 274.391C240.916 275.159 240.584 275.771 240.193 276.227C239.803 276.669 239.425 277.014 239.061 277.262C238.631 277.548 238.201 277.743 237.771 277.848C237.706 277.861 237.635 277.874 237.557 277.887C237.479 277.887 237.407 277.893 237.342 277.906ZM243.689 271.09C243.755 271.012 243.794 270.868 243.807 270.66C243.833 270.439 243.885 270.191 243.963 269.918C244.054 269.645 244.204 269.358 244.412 269.059C244.62 268.759 244.959 268.479 245.428 268.219C245.883 267.958 246.326 267.802 246.756 267.75C247.186 267.698 247.596 267.717 247.986 267.809C248.377 267.9 248.742 268.043 249.08 268.238C249.432 268.434 249.751 268.648 250.037 268.883C250.232 269.039 250.389 269.267 250.506 269.566C250.623 269.853 250.714 270.178 250.779 270.543C250.844 270.908 250.89 271.292 250.916 271.695C250.955 272.086 250.981 272.47 250.994 272.848C251.007 273.212 251.014 273.551 251.014 273.863C251.027 274.163 251.053 274.41 251.092 274.605C251.144 274.892 251.235 275.139 251.365 275.348C251.495 275.543 251.639 275.712 251.795 275.855C251.951 275.986 252.107 276.09 252.264 276.168C252.42 276.246 252.557 276.305 252.674 276.344C252.752 276.383 252.824 276.409 252.889 276.422C253.019 276.474 253.11 276.474 253.162 276.422C253.084 276.604 253.012 276.76 252.947 276.891C252.882 277.021 252.83 277.132 252.791 277.223C252.739 277.327 252.693 277.411 252.654 277.477C252.615 277.555 252.57 277.626 252.518 277.691C252.479 277.757 252.426 277.828 252.361 277.906C252.296 277.984 252.231 278.069 252.166 278.16C251.997 278.095 251.834 278.017 251.678 277.926C251.535 277.835 251.404 277.75 251.287 277.672C251.144 277.581 251.014 277.49 250.896 277.398C250.779 277.307 250.669 277.203 250.564 277.086C250.473 276.982 250.376 276.871 250.271 276.754C250.18 276.637 250.102 276.507 250.037 276.363C249.959 276.533 249.77 276.773 249.471 277.086C249.184 277.398 248.807 277.685 248.338 277.945C247.869 278.193 247.322 278.368 246.697 278.473C246.085 278.577 245.408 278.505 244.666 278.258C244.34 278.154 244.035 278.004 243.748 277.809C243.462 277.6 243.214 277.353 243.006 277.066C242.811 276.78 242.667 276.454 242.576 276.09C242.498 275.712 242.505 275.296 242.596 274.84C242.687 274.384 242.85 274 243.084 273.688C243.318 273.375 243.598 273.121 243.924 272.926C244.249 272.73 244.614 272.581 245.018 272.477C245.421 272.372 245.838 272.301 246.268 272.262C246.606 272.249 246.945 272.268 247.283 272.32C247.57 272.372 247.869 272.47 248.182 272.613C248.494 272.743 248.761 272.945 248.982 273.219C248.969 272.529 248.943 271.982 248.904 271.578C248.878 271.161 248.852 270.842 248.826 270.621C248.774 270.361 248.729 270.178 248.689 270.074C248.624 269.983 248.553 269.879 248.475 269.762C248.41 269.645 248.325 269.54 248.221 269.449C248.117 269.345 247.986 269.26 247.83 269.195C247.674 269.13 247.492 269.104 247.283 269.117C247.062 269.13 246.886 269.189 246.756 269.293C246.626 269.397 246.521 269.521 246.443 269.664C246.378 269.794 246.339 269.938 246.326 270.094C246.313 270.25 246.32 270.387 246.346 270.504C246.372 270.582 246.411 270.667 246.463 270.758C246.515 270.836 246.587 270.921 246.678 271.012C246.769 271.103 246.893 271.181 247.049 271.246C246.749 271.285 246.482 271.318 246.248 271.344C246.014 271.357 245.812 271.376 245.643 271.402C245.447 271.428 245.278 271.448 245.135 271.461C244.992 271.474 244.822 271.5 244.627 271.539C244.458 271.565 244.249 271.598 244.002 271.637C243.755 271.676 243.468 271.728 243.143 271.793C243.221 271.702 243.292 271.617 243.357 271.539C243.423 271.448 243.481 271.37 243.533 271.305C243.585 271.227 243.637 271.155 243.689 271.09ZM246.619 273.414C246.385 273.427 246.15 273.486 245.916 273.59C245.682 273.681 245.473 273.818 245.291 274C245.109 274.169 244.952 274.371 244.822 274.605C244.705 274.827 244.646 275.074 244.646 275.348C244.646 275.621 244.712 275.862 244.842 276.07C244.985 276.266 245.167 276.428 245.389 276.559C245.623 276.689 245.87 276.767 246.131 276.793C246.404 276.819 246.671 276.793 246.932 276.715C247.179 276.624 247.413 276.48 247.635 276.285C247.856 276.077 248.045 275.855 248.201 275.621C248.357 275.374 248.468 275.133 248.533 274.898C248.598 274.651 248.605 274.449 248.553 274.293C248.449 273.954 248.214 273.72 247.85 273.59C247.485 273.447 247.075 273.388 246.619 273.414Z" fill="#103B14"/>
<path d="M104 189C104 183.477 108.477 179 114 179H172C177.523 179 182 183.477 182 189V249C182 254.523 177.523 259 172 259H114C108.477 259 104 254.523 104 249V189Z" fill="#103B14"/>
<path d="M85.418 71.9727C85.418 73.6523 85.6328 75.0977 86.0625 76.3086C86.4922 77.5195 87.1172 78.5156 87.9375 79.2969C88.7773 80.0781 89.793 80.6543 90.9844 81.0254C92.1953 81.3965 93.5723 81.582 95.1152 81.582C96.9512 81.582 99.1191 81.3574 101.619 80.9082C104.119 80.459 106.883 79.7656 109.91 78.8281V92.5391C106.766 93.5938 103.699 94.3555 100.711 94.8242C97.7422 95.293 94.8125 95.5273 91.9219 95.5273C88.3867 95.5273 85.0762 95.0879 81.9902 94.209C78.9238 93.3301 76.248 91.9141 73.9629 89.9609C71.6973 87.9883 69.9102 85.5078 68.6016 82.5195C67.293 79.5312 66.6387 76.0156 66.6387 71.9727C66.6387 68.0273 67.2344 64.6289 68.4258 61.7773C69.6367 58.9258 71.3359 56.582 73.5234 54.7461C75.7305 52.8906 78.3672 51.5234 81.4336 50.6445C84.5195 49.7656 87.9375 49.3262 91.6875 49.3262C93.9922 49.3262 96.0625 49.4434 97.8984 49.6777C99.7539 49.9121 101.424 50.2051 102.908 50.5566C104.393 50.9082 105.701 51.3086 106.834 51.7578C107.986 52.1875 109.012 52.6074 109.91 53.0176V66.4941H101.092C100.096 65.0879 98.9824 64.0527 97.752 63.3887C96.541 62.7246 95.291 62.3926 94.002 62.3926C92.9082 62.3926 91.8438 62.6074 90.8086 63.0371C89.793 63.4668 88.8848 64.0918 88.084 64.9121C87.2832 65.7324 86.6387 66.7383 86.1504 67.9297C85.6621 69.1016 85.418 70.4492 85.418 71.9727ZM152.83 50C155.916 50.7422 158.211 51.9629 159.715 53.6621C161.238 55.3613 162 57.6465 162 60.5176C162 62.4316 161.795 64.043 161.385 65.3516C160.975 66.6406 160.457 67.7148 159.832 68.5742C159.207 69.4141 158.523 70.0684 157.781 70.5371C157.059 70.9863 156.385 71.3184 155.76 71.5332C155.135 71.748 154.598 71.875 154.148 71.9141C153.719 71.9531 153.494 71.9727 153.475 71.9727C154.236 72.0117 155.047 72.0996 155.906 72.2363C156.785 72.373 157.654 72.5879 158.514 72.8809C159.373 73.1738 160.193 73.5547 160.975 74.0234C161.756 74.4922 162.439 75.0781 163.025 75.7812C163.631 76.4648 164.109 77.2852 164.461 78.2422C164.812 79.1992 164.988 80.3027 164.988 81.5527C164.988 83.4668 164.744 85.2441 164.256 86.8848C163.787 88.5254 162.947 89.9512 161.736 91.1621C160.545 92.3535 158.914 93.291 156.844 93.9746C154.773 94.6582 152.156 95 148.992 95H114.979V82.2852L118.729 81.5527V62.3633L114.979 61.6309V50H152.83ZM146.238 64.4141C146.238 63.418 146.062 62.6562 145.711 62.1289C145.379 61.582 144.93 61.1816 144.363 60.9277C143.797 60.6738 143.152 60.5273 142.43 60.4883C141.707 60.4492 140.975 60.4297 140.232 60.4297H137.479V68.8379H140.232C140.975 68.8379 141.707 68.8184 142.43 68.7793C143.152 68.7207 143.797 68.5547 144.363 68.2812C144.93 68.0078 145.379 67.5781 145.711 66.9922C146.062 66.3867 146.238 65.5273 146.238 64.4141ZM146.238 79.0332C146.238 78.0371 146.062 77.2754 145.711 76.748C145.379 76.2207 144.93 75.8301 144.363 75.5762C143.797 75.3223 143.152 75.1758 142.43 75.1367C141.707 75.0977 140.975 75.0781 140.232 75.0781H137.479V83.4863H140.232C140.975 83.4863 141.707 83.4668 142.43 83.4277C143.152 83.3691 143.797 83.2031 144.363 82.9297C144.93 82.6562 145.379 82.2168 145.711 81.6113C146.062 81.0059 146.238 80.1465 146.238 79.0332ZM187.02 71.9727C187.02 73.6523 187.234 75.0977 187.664 76.3086C188.094 77.5195 188.719 78.5156 189.539 79.2969C190.379 80.0781 191.395 80.6543 192.586 81.0254C193.797 81.3965 195.174 81.582 196.717 81.582C198.553 81.582 200.721 81.3574 203.221 80.9082C205.721 80.459 208.484 79.7656 211.512 78.8281V92.5391C208.367 93.5938 205.301 94.3555 202.312 94.8242C199.344 95.293 196.414 95.5273 193.523 95.5273C189.988 95.5273 186.678 95.0879 183.592 94.209C180.525 93.3301 177.85 91.9141 175.564 89.9609C173.299 87.9883 171.512 85.5078 170.203 82.5195C168.895 79.5312 168.24 76.0156 168.24 71.9727C168.24 68.0273 168.836 64.6289 170.027 61.7773C171.238 58.9258 172.938 56.582 175.125 54.7461C177.332 52.8906 179.969 51.5234 183.035 50.6445C186.121 49.7656 189.539 49.3262 193.289 49.3262C195.594 49.3262 197.664 49.4434 199.5 49.6777C201.355 49.9121 203.025 50.2051 204.51 50.5566C205.994 50.9082 207.303 51.3086 208.436 51.7578C209.588 52.1875 210.613 52.6074 211.512 53.0176V66.4941H202.693C201.697 65.0879 200.584 64.0527 199.354 63.3887C198.143 62.7246 196.893 62.3926 195.604 62.3926C194.51 62.3926 193.445 62.6074 192.41 63.0371C191.395 63.4668 190.486 64.0918 189.686 64.9121C188.885 65.7324 188.24 66.7383 187.752 67.9297C187.264 69.1016 187.02 70.4492 187.02 71.9727Z" fill="#103B14"/>
<defs>
<filter id="filter0_d_0_1" x="18" y="100" width="252" height="167" filterUnits="userSpaceOnUse" color-interpolation-filters="sRGB">
<feFlood flood-opacity="0" result="BackgroundImageFix"/>
<feColorMatrix in="SourceAlpha" type="matrix" values="0 0 0 0 0 0 0 0 0 0 0 0 0 0 0 0 0 0 127 0" result="hardAlpha"/>
<feOffset dy="4"/>
<feGaussianBlur stdDeviation="2"/>
<feComposite in2="hardAlpha" operator="out"/>
<feColorMatrix type="matrix" values="0 0 0 0 0 0 0 0 0 0 0 0 0 0 0 0 0 0 0.25 0"/>
<feBlend mode="normal" in2="BackgroundImageFix" result="effect1_dropShadow_0_1"/>
<feBlend mode="normal" in="SourceGraphic" in2="effect1_dropShadow_0_1" result="shape"/>
</filter>
<filter id="filter1_i_0_1" x="0.590576" y="0.578522" width="284.819" height="115.421" filterUnits="userSpaceOnUse" color-interpolation-filters="sRGB">
<feFlood flood-opacity="0" result="BackgroundImageFix"/>
<feBlend mode="normal" in="SourceGraphic" in2="BackgroundImageFix" result="shape"/>
<feColorMatrix in="SourceAlpha" type="matrix" values="0 0 0 0 0 0 0 0 0 0 0 0 0 0 0 0 0 0 127 0" result="hardAlpha"/>
<feOffset dy="4"/>
<feGaussianBlur stdDeviation="2"/>
<feComposite in2="hardAlpha" operator="arithmetic" k2="-1" k3="1"/>
<feColorMatrix type="matrix" values="0 0 0 0 0 0 0 0 0 0 0 0 0 0 0 0 0 0 0.25 0"/>
<feBlend mode="normal" in2="shape" result="effect1_innerShadow_0_1"/>
</filter>
</defs>
</svg>
